<?xml version="1.0" encoding="utf-8"?>
<!-- Generator: Adobe Illustrator 18.1.1, SVG Export Plug-In . SVG Version: 6.00 Build 0)  -->
<svg version="1.1" id="Layer_3" xmlns="http://www.w3.org/2000/svg" xmlns:xlink="http://www.w3.org/1999/xlink" x="0px" y="0px"
	 viewBox="0 0 1024 768" enable-background="new 0 0 1024 768" xml:space="preserve">
<path fill="#FCAFC0" d="M713.8,658.2h-299c-16,0-29-13-29-29v-502c0-16,13-29,29-29h299c16,0,29,13,29,29v502
	C742.8,645.2,729.9,658.2,713.8,658.2z"/>
<g id="Layer_2">
	<path fill="#FFDFC4" d="M477.1,428.7c22.5,68.4,47.5,136.1,75.1,202.6c31.9-66,60.1-133.8,84.5-202.8
		C583.5,428.5,530.3,428.6,477.1,428.7C487,459,530.3,428.6,477.1,428.7z"/>
	<path fill="#FFF6D5" d="M631.2,362c17.3-29.7,33.2-113.5-23.9-111.4c21.3-25.3,6.3-58.6-13.9-79.4c-8.5-8.8-26-25.3-39.8-21.3
		c-4.5,1.3-14.4,7.3-13.7,13c0.2,2.1,5.2,6.2,6.6,8.4c2.9,4.7,5,9.8,6.1,15.2c2.8,13.6-2.1,26-10.1,37c-5.3,7.3-11.6,13.3-19.9,17.3
		c-6.5,3.2-13.3,3.1-20,5.3c-42.6,14.1-5.2,63.1,16,77.4C551.5,345.8,591.3,359.5,631.2,362C638.7,349.3,618.4,361.2,631.2,362z"/>
	<path fill="none" d="M547,353.4"/>
	<path fill="#693F26" d="M483.7,322.1c15.3,25.2,35.3,33,62,41.4c15.4,4.8,31.1,10.4,47,13c12.3,2,23.3-1.2,35.5-2.3
		c16.9-1.6,29.7,15.9,25.5,32.4c-2.7,10.5-4.8,12.2-14.9,10.9c-11.2-1.4-22.5-2.5-33.7-3.5c-23.3-2-46.6-3.1-70-3.3
		c-10-0.1-20,0-29.9,0.2c-9.2,0.2-24.2,3.8-33,1.3C449.4,406,454.3,318,483.7,322.1C487.8,328.8,481.9,321.8,483.7,322.1z"/>
	<g id="Layer_4">
		<path fill="#F1B87E" d="M567,447.1c-15.8,0-31.6,0-47.4,0c-9.3,0-18.8,0.5-28.1,0c-5-0.3-15.6-3.2-5.5-8c3.4-1.6,11.1,0,14.8,0
			c10.4,0,20.8,0,31.2,0c9.3,0,18.6,0,27.9,0c1.6,0,5.2-0.7,6.8,0C569.5,440.3,574.8,447.1,567,447.1z"/>
		<path fill="#F1B87E" d="M557.2,473c-12.7,0-25.4,0-38.1,0c-6.6,0-14.3,1.1-20.8,0c-4.9-0.8-12.3-4-3.7-8c2.7-1.2,9.1,0,11.9,0
			c8.3,0,16.5,0,24.8,0c7.1,0,15.1-1,22.1,0c1,0.2,2.7-0.4,3.6,0C559.7,466.1,564.9,473,557.2,473z"/>
		<path fill="#F1B87E" d="M578.2,498.5c-14.7,0-29.5,0-44.2,0c-8.5,0-17.3,0.6-25.8,0c-5.2-0.4-13.5-3.9-4.5-8
			c3.1-1.4,10.4,0,13.8,0c9.7,0,19.3,0,29,0c8.5,0,17.1-0.5,25.6,0c1.4,0.1,4.5-0.6,5.9,0C580.8,491.7,585.8,498.5,578.2,498.5z"/>
		<path fill="#F1B87E" d="M563.2,523.5c-10.6,0-21.3,0-31.9,0c-5.1,0-11.4,1-16.4,0c-5-1-9.5-4.7-2.2-8c7-3.2,23,0,30.6,0
			c5.5,0,12.3-1.1,17.7,0C564.9,516.3,571.5,523.5,563.2,523.5z"/>
		<path fill="#F1B87E" d="M557.5,546.1c-8.3,0-16.6,0-24.9,0c-3.8,0-25-1.1-11.6-8c5-2.5,18.2,0,23.7,0c3.2,0,8.7-1,11.8,0
			C559.5,539.1,565.8,546.1,557.5,546.1z"/>
	</g>
</g>
</svg>
